<svg width="245" height="55" viewBox="0 0 245 55" fill="none" xmlns="http://www.w3.org/2000/svg">
<path fill-rule="evenodd" clip-rule="evenodd" d="M10.8798 31.47L8.4998 35.95V51H0.799805V2H8.4998V23.35L18.5798 2H26.2798L15.5698 23.84L26.2798 51H18.3698L10.8798 31.47ZM37.1498 39.73C37.1498 41.5033 37.5115 42.7517 38.2348 43.475C38.9581 44.1983 39.9265 44.56 41.1398 44.56C42.3531 44.56 43.3215 44.1983 44.0448 43.475C44.7681 42.7517 45.1298 41.5033 45.1298 39.73V13.27C45.1298 11.4967 44.7681 10.2483 44.0448 9.525C43.3215 8.80167 42.3531 8.44 41.1398 8.44C39.9265 8.44 38.9581 8.80167 38.2348 9.525C37.5115 10.2483 37.1498 11.4967 37.1498 13.27V39.73ZM29.4498 13.76C29.4498 9.79332 30.4531 6.74835 32.4598 4.625C34.4665 2.50166 37.3598 1.44 41.1398 1.44C44.9198 1.44 47.8131 2.50166 49.8198 4.625C51.8265 6.74835 52.8298 9.79332 52.8298 13.76V39.24C52.8298 43.2067 51.8265 46.2517 49.8198 48.375C47.8131 50.4983 44.9198 51.56 41.1398 51.56C37.3598 51.56 34.4665 50.4983 32.4598 48.375C30.4531 46.2517 29.4498 43.2067 29.4498 39.24V13.76ZM65.4498 15.51V51H58.5198V2H68.1798L76.0898 31.33V2H82.9498V51H75.0398L65.4498 15.51ZM88.2898 13.76C88.2898 9.79332 89.2348 6.74835 91.1248 4.625C93.0148 2.50166 95.8498 1.44 99.6298 1.44C103.41 1.44 106.245 2.50166 108.135 4.625C110.025 6.74835 110.97 9.79332 110.97 13.76V15.3H103.69V13.27C103.69 11.4967 103.351 10.2483 102.675 9.525C101.998 8.80167 101.053 8.44 99.8398 8.44C98.6265 8.44 97.6815 8.80167 97.0048 9.525C96.3281 10.2483 95.9898 11.4967 95.9898 13.27C95.9898 14.95 96.3631 16.4317 97.1098 17.715C97.8565 18.9983 98.7898 20.2117 99.9098 21.355C101.03 22.4983 102.231 23.6417 103.515 24.785C104.798 25.9283 106 27.1767 107.12 28.53C108.24 29.8833 109.173 31.4233 109.92 33.15C110.666 34.8767 111.04 36.9067 111.04 39.24C111.04 43.2067 110.071 46.2517 108.135 48.375C106.198 50.4983 103.34 51.56 99.5598 51.56C95.7798 51.56 92.9215 50.4983 90.9848 48.375C89.0481 46.2517 88.0798 43.2067 88.0798 39.24V36.23H95.3598V39.73C95.3598 41.5033 95.7215 42.74 96.4448 43.44C97.1681 44.14 98.1365 44.49 99.3498 44.49C100.563 44.49 101.531 44.14 102.255 43.44C102.978 42.74 103.34 41.5033 103.34 39.73C103.34 38.05 102.966 36.5683 102.22 35.285C101.473 34.0017 100.54 32.7883 99.4198 31.645C98.2998 30.5017 97.0981 29.3583 95.8148 28.215C94.5315 27.0717 93.3298 25.8233 92.2098 24.47C91.0898 23.1167 90.1565 21.5767 89.4098 19.85C88.6631 18.1233 88.2898 16.0933 88.2898 13.76ZM114 2H137.8V9H129.75V51H122.05V9H114V2ZM158.05 51C157.956 50.6733 157.863 50.37 157.77 50.09C157.676 49.81 157.595 49.46 157.525 49.04C157.455 48.62 157.408 48.0833 157.385 47.43C157.361 46.7767 157.35 45.96 157.35 44.98V37.28C157.35 34.9933 156.953 33.3833 156.16 32.45C155.366 31.5167 154.083 31.05 152.31 31.05H149.65V51H141.95V2H153.57C157.583 2 160.488 2.93333 162.285 4.8C164.081 6.66668 164.98 9.48998 164.98 13.27V17.12C164.98 22.16 163.3 25.4733 159.94 27.06C161.9 27.8533 163.241 29.1483 163.965 30.945C164.688 32.7417 165.05 34.9233 165.05 37.49V45.05C165.05 46.2633 165.096 47.325 165.19 48.235C165.283 49.145 165.516 50.0667 165.89 51H158.05ZM149.65 9V24.05H152.66C154.106 24.05 155.238 23.6767 156.055 22.93C156.871 22.1833 157.28 20.83 157.28 18.87V14.04C157.28 12.2667 156.965 10.9833 156.335 10.19C155.705 9.39667 154.713 9 153.36 9H149.65ZM178.23 2V39.8C178.23 41.5733 178.591 42.81 179.315 43.51C180.038 44.21 181.006 44.56 182.22 44.56C183.433 44.56 184.401 44.21 185.125 43.51C185.848 42.81 186.21 41.5733 186.21 39.8V2H193.49V39.31C193.49 43.2767 192.521 46.3217 190.585 48.445C188.648 50.5683 185.79 51.63 182.01 51.63C178.23 51.63 175.371 50.5683 173.435 48.445C171.498 46.3217 170.53 43.2767 170.53 39.31V2H178.23ZM220.57 2H244.37V9H236.32V51H228.62V9H220.57V2Z" fill="white"/>
<path fill-rule="evenodd" clip-rule="evenodd" d="M197.147 27.4644L217.147 2.46442V52.4644L197.147 27.4644Z" fill="#00A4E5"/>
</svg>
